<?xml version="1.0" encoding="utf-8"?>
<!-- Generator: Adobe Illustrator 25.2.1, SVG Export Plug-In . SVG Version: 6.00 Build 0)  -->
<svg version="1.1" id="Layer_1" xmlns="http://www.w3.org/2000/svg" xmlns:xlink="http://www.w3.org/1999/xlink" x="0px" y="0px"
	 width="78.258px" height="71.614px" viewBox="0 0 78.258 71.614" style="enable-background:new 0 0 78.258 71.614;"
	 xml:space="preserve">
<style type="text/css">
	.st0{fill:none;stroke:#000000;stroke-width:2;stroke-miterlimit:10;}
</style>
<g>
	<path class="st0" d="M44.161,37.388c-0.319-0.389-0.242-0.993,0.046-1.406s0.742-0.675,1.186-0.912
		c4.486-2.384,9.701-3.378,14.749-2.808c1.419,0.16,2.839,0.446,4.139,1.038c2.013,0.918,3.624,2.513,5.19,4.077
		c0.457,0.456,0.927,0.931,1.158,1.535c0.273,0.709,0.182,1.498,0.086,2.251c-0.301,2.386-0.602,4.773-0.902,7.16
		c-0.156,1.235-0.319,2.496-0.876,3.609c-0.459,0.917-1.166,1.69-1.95,2.351c-2.468,2.083-5.72,3.102-8.947,3.228
		c-1.52,0.06-3.094-0.082-4.44-0.792c-2.732-1.441-3.804-4.741-5.754-7.137c-1.087-1.336-2.496-2.44-3.272-3.978
		c-0.776-1.538-0.611-3.78,0.928-4.552c0.976-0.49,2.173-0.224,3.14,0.282c0.968,0.506,1.807,1.234,2.781,1.727
		c2.377,1.207,5.263,0.882,7.778-0.002c1.395-0.49,2.77-1.167,3.757-2.268s1.524-2.693,1.066-4.1
		c-0.296-0.908-0.96-1.646-1.652-2.303c-2.561-2.43-5.914-4.201-9.445-4.208c-3.531-0.007-7.161,2.032-8.397,5.339
		c-0.253,0.675-0.264,1.661,0.424,1.877c0.397,0.125,0.811-0.101,1.166-0.319c1.343-0.822,2.687-1.646,4.03-2.467
		c0.755-0.462,1.535-0.948,2.021-1.687c0.459-0.697,0.61-1.55,0.964-2.306c1.061-2.271,3.679-3.29,5.532-4.978
		c0.854-0.778,1.558-1.716,2.466-2.43c2.117-1.665,5.078-1.923,7.213-3.565c0.229-0.176,0.454-0.376,0.574-0.638
		c0.214-0.464,0.064-1.006-0.089-1.493c-0.299-0.951-0.792-2.07-1.782-2.181c-0.309-0.035-0.62,0.043-0.92,0.128
		c-3.468,0.984-6.549,3.1-9.028,5.717c-2.478,2.617-4.389,5.727-5.995,8.954c1.178,0.16,2.339-0.31,3.45-0.734
		c3.961-1.513,8.104-2.546,12.31-3.072c0.848-0.106,1.954-0.038,2.224,0.773c0.235,0.708-0.388,1.389-0.963,1.864
		c-3.293,2.726-6.93,5.034-10.799,6.851c-4.033,1.895-8.689,3.259-12.905,1.817c-0.602-0.206-1.232-0.509-1.513-1.08
		c-0.364-0.738-0.002-1.64,0.529-2.27s1.224-1.119,1.682-1.802c0.71-1.059,0.754-2.408,0.986-3.661
		c0.444-2.403,1.676-4.653,3.462-6.322c0.804-0.751,1.712-1.385,2.499-2.153c1.132-1.107,1.987-2.469,3.087-3.609
		c2.656-2.753,6.629-4.102,8.867-7.204c0.307-0.425,0.578-1.008,0.293-1.447c-2.427-0.15-4.255,2.027-6.011,3.71
		c-1.55,1.486-3.336,2.71-4.863,4.218c-1.727,1.707-3.089,3.743-4.362,5.811c-1.723,2.795-3.307,5.674-4.749,8.623
		c-0.675,1.382-1.318,2.779-1.962,4.176c-0.15,0.328-0.304,0.664-0.332,1.023c-0.115,1.499,1.813,2.298,2.387,3.687
		c0.39,0.943,0.113,2.089,0.609,2.98c0.441,0.791,1.356,1.159,2.176,1.543c4.457,2.084,7.835,6.337,8.858,11.15
		c0.187,0.88,0.416,1.927,1.253,2.258c0.322,0.127,0.68,0.116,1.025,0.092c1.367-0.096,2.721-0.378,4.013-0.836
		c0.098-2.033-1.845-3.472-3.397-4.788c-1.761-1.494-3.254-3.302-4.389-5.312c-0.096-0.171-0.193-0.368-0.138-0.556
		c0.054-0.18,0.23-0.292,0.4-0.371c1.502-0.691,3.308,0.056,4.529,1.171c1.221,1.114,2.093,2.569,3.301,3.696
		c1.209,1.128,2.987,1.915,4.512,1.274c1.515-0.637,2.181-2.381,2.672-3.949C64.241,46.638,58.91,44.14,54.52,40.5
		c0.496-0.385,1.206-0.259,1.812-0.092c4.24,1.175,8.373,3.554,12.735,2.974c0.342-0.046,0.719-0.132,0.912-0.417
		c0.153-0.225,0.151-0.518,0.143-0.79c-0.028-1.052-0.106-2.222-0.87-2.946c-0.421-0.399-0.99-0.595-1.548-0.752
		c-2.186-0.614-4.497-0.778-6.748-0.482c-2.239,0.295-4.398,1.039-6.632,1.373c-2.234,0.334-4.667,0.21-6.526-1.073"/>
	<path class="st0" d="M42.431,32.835c0.425-2.566,0.85-5.131,1.275-7.697c0.299-1.807,0.613-3.657,1.514-5.251
		c0.944-1.671,2.458-2.932,3.958-4.13c4.745-3.787,9.844-7.406,15.729-8.894c0.839-0.212,1.721-0.38,2.565-0.185
		c1.333,0.308,2.327,1.487,2.791,2.773s0.487,2.684,0.505,4.052c0.023,1.703,0.044,3.423-0.288,5.095
		c-0.259,1.303-0.734,2.594-0.635,3.918c0.151,2.03,1.636,3.912,1.268,5.914c-0.246,1.335-1.298,2.403-2.492,3.048
		c-0.773,0.418-1.725,0.812-1.931,1.667c-0.182,0.755,0.346,1.511,0.978,1.963c0.632,0.451,1.385,0.715,1.999,1.192
		c1.548,1.204,1.831,3.409,1.826,5.369c-0.007,2.979-0.395,5.956-1.152,8.837"/>
	<path class="st0" d="M42.02,34.81c0.249-0.762-0.722-1.422-1.519-1.33c-0.961,0.111-1.803,0.915-1.946,1.872
		c-0.143,0.957,0.435,1.978,1.333,2.337c0.408,0.163,0.868,0.203,1.24,0.436c0.643,0.406,0.824,1.243,0.971,1.989
		c0.752,3.812,2.108,7.504,4.001,10.897c0.243,0.437,0.837,0.91,1.147,0.518c0.104-0.131,0.112-0.311,0.116-0.477
		c0.016-0.755,0.027-1.533-0.251-2.235c-0.288-0.726-0.855-1.298-1.292-1.944c-1.222-1.807-1.378-4.126-1.238-6.303
		c0.032-0.507,0.077-1.025-0.054-1.515c-0.111-0.41-0.34-0.776-0.565-1.136c-0.53-0.845-1.089-1.719-1.93-2.254
		c-0.843-0.535-2.057-0.624-2.775,0.07c-0.804,0.777-0.636,2.141-0.082,3.112s1.411,1.747,1.939,2.734
		c0.552,1.031,0.71,2.229,1.18,3.299c0.559,1.271,1.532,2.308,2.318,3.453c0.786,1.145,1.408,2.536,1.119,3.894
		c-1.489-2.044-1.534-4.759-2.204-7.197c-0.193-0.701-0.458-1.415-0.988-1.913c-0.53-0.498-1.387-0.713-1.998-0.32
		c-0.255,0.163-0.443,0.412-0.609,0.664c-1.226,1.846-1.691,4.173-3.192,5.803c-1.212,1.316-2.958,2.01-4.697,2.43
		c-1.663,0.402-3.465,0.581-5.049-0.067c-2.461-1.006-3.81-3.934-3.411-6.563c0.399-2.628,2.282-4.874,4.595-6.185
		c2.312-1.311,5.013-1.786,7.669-1.891c0.881-0.034,2.042-0.276,2.103-1.156c0.029-0.416-0.235-0.791-0.504-1.111
		c-2.082-2.475-5.112-3.913-8.044-5.279c-2-0.931-4.01-1.867-6.13-2.478c-2.136-0.616-4.353-0.894-6.564-1.132
		c-2.253-0.243-4.524-0.446-6.782-0.251c-1.29,0.112-2.6,0.364-3.709,1.032c-1.109,0.669-1.992,1.815-2.071,3.107
		c-0.081,1.333,0.667,2.558,1.387,3.682c1.922,3,3.846,6.001,5.768,9.002c0.251,0.392,0.506,0.789,0.846,1.106
		c0.441,0.412,1.002,0.669,1.566,0.882c3.369,1.276,7.079,1.208,10.677,1.017c1.606-0.085,3.212-0.192,4.815-0.319
		c3.208-0.255,6.765-0.78,8.776-3.292c0.72-0.899,1.167-2.209,0.564-3.191c-0.423-0.688-1.27-1.026-2.078-1.041
		c-0.808-0.016-1.594,0.24-2.358,0.503c-2.903,1.002-5.806,2.185-8.175,4.14c-1.469,1.211-2.713,2.703-4.326,3.715
		c-0.84,0.528-1.795,0.938-2.41,1.716c-0.704,0.89-0.833,2.094-0.89,3.228c-0.063,1.256-0.071,2.514-0.023,3.77
		c0.028,0.728,0.076,1.465,0.314,2.153c0.363,1.05,1.136,1.901,1.938,2.669c2.997,2.865,6.694,4.992,10.677,6.142
		c1.28,0.369,2.614,0.641,3.94,0.509c3.474-0.347,6.076-3.326,7.83-6.345c0.866-1.492,1.645-3.204,1.279-4.89
		c-0.222-1.025-0.845-1.911-1.28-2.865c-0.805-1.765-0.962-3.818-0.432-5.684c0.325-1.145,0.814-2.594-0.106-3.35
		c-0.695-0.572-1.817-0.247-2.39,0.448s-0.737,1.63-0.865,2.522c-0.746,5.185-0.956,10.456-0.482,15.673
		c0.087,0.964,0.188,1.984-0.231,2.856c-0.42,0.871-1.585,1.46-2.387,0.919c-0.943-0.636-0.633-2.064-0.333-3.161
		c0.807-2.955,0.715-6.148-0.26-9.052c-0.167-0.496-0.412-1.038-0.905-1.214c-0.665-0.236-1.337,0.333-1.741,0.913
		c-2.289,3.282-1.498,7.882-3.326,11.442c-0.164,0.321-0.401,0.666-0.759,0.705c-0.244,0.026-0.476-0.101-0.688-0.224
		c-0.773-0.448-1.545-0.894-2.318-1.342c-0.176-0.102-0.364-0.216-0.443-0.403c-0.095-0.225-0.005-0.482,0.09-0.708
		c2.087-5.015,6.081-9.255,7.093-14.592c0.039-0.202,0.07-0.422-0.026-0.603c-0.267-0.509-1.045-0.173-1.456,0.23
		c-3.334,3.276-5.251,7.875-8.933,10.754c-0.506,0.396-1.193,0.766-1.756,0.455c-0.76-0.42-0.508-1.576-0.068-2.325
		c1.267-2.156,3.2-3.825,5.1-5.452c1.764-1.512,3.583-3.056,5.774-3.829c0.652-0.23,1.491-0.339,1.932,0.192
		c0.442,0.533,0.175,1.344-0.196,1.93c-1.287,2.036-3.751,3.354-6.136,3.013c-2.385-0.34-4.462-2.492-4.46-4.901
		c0.002-2.711,2.275-4.789,4.23-6.666c0.929-0.892,1.824-1.817,2.683-2.776c0.543-0.605,1.09-1.26,1.256-2.057
		c0.238-1.149-0.401-2.34-1.315-3.075c-0.914-0.736-2.063-1.102-3.19-1.43c-4.501-1.308-9.104-2.23-13.704-3.133
		c-1.854-0.364-3.74-0.727-5.62-0.534c-1.145,0.118-2.463,0.636-2.696,1.764c-0.18,0.87,0.377,1.71,0.944,2.395
		c0.767,0.925,1.607,1.79,2.51,2.584c0.288,0.252,0.598,0.507,0.973,0.588c0.403,0.087,0.821-0.038,1.209-0.175
		c2.029-0.716,3.927-1.787,5.997-2.371c5.13-1.447,11.049,0.513,14.3,4.737c-1.109,0.903-2.619,1.178-4.046,1.097
		c-1.428-0.081-2.815-0.481-4.212-0.788c-3.338-0.737-6.79-0.956-10.195-0.649c-0.812,0.073-1.729,0.24-2.173,0.924
		c-0.517,0.795-0.126,1.854,0.343,2.679c1.107,1.95,2.979,3.839,5.213,3.64c0.878-0.078,1.694-0.477,2.471-0.894
		c2.581-1.384,5.013-3.048,7.239-4.953c3.323,1.803,6.998,3.666,10.707,2.938c1.323-0.26,2.785-1.162,2.723-2.508
		c-0.035-0.793-0.617-1.469-1.287-1.894c-0.67-0.426-1.439-0.667-2.149-1.022c-2.588-1.29-4.276-4.01-6.93-5.161
		c-1.366-0.593-2.881-0.719-4.363-0.873c-3.615-0.373-7.208-0.948-10.759-1.721c-2.368-0.516-4.884-1.112-7.161-0.282"/>
</g>
</svg>
